<mxfile host="app.diagrams.net" modified="2024-03-20T14:26:21.655Z" agent="Mozilla/5.0 (Macintosh; Intel Mac OS X 10_15_7) AppleWebKit/537.36 (KHTML, like Gecko) Chrome/122.0.0.0 Safari/537.36" version="23.1.5" etag="__yg-K2-Q7JcebVZbq2z" type="github">
  <diagram name="Page-1" id="6e5A3n3I-gebjUWD_JuG">
    <mxGraphModel>
      <root>
        <mxCell id="0" />
        <mxCell id="1" parent="0" />
      </root>
    </mxGraphModel>
  </diagram>
</mxfile>
